<svg xml:space="preserve" style="enable-background:new 0 0 1024 1024;" viewBox="0 0 1024 1024" y="0px" x="0px" xmlns:xlink="http://www.w3.org/1999/xlink" xmlns="http://www.w3.org/2000/svg" id="图层_1" version="1.1">
<style type="text/css">
	.st0{opacity:0.3;fill:#0F82F8;enable-background:new    ;}
	.st1{fill:url(#SVGID_1_);}
	.st2{fill:url(#SVGID_2_);}
	.st3{fill:url(#SVGID_3_);}
	.st4{fill:url(#SVGID_4_);}
	.st5{fill:url(#SVGID_5_);}
	.st6{fill:url(#SVGID_6_);}
	.st7{fill:url(#SVGID_7_);}
	.st8{fill:url(#SVGID_8_);}
	.st9{fill:url(#SVGID_9_);}
	.st10{fill:#8BBDEA;}
	.st11{fill:#B6DCFF;}
	.st12{fill:#FFFFFF;}
	.st13{fill:#75ADFF;}
	.st14{fill:#5299FF;}
	.st15{fill:url(#SVGID_10_);}
	.st16{fill:url(#SVGID_11_);}
	.st17{fill:url(#SVGID_12_);}
	.st18{fill:url(#SVGID_13_);}
</style>
<ellipse ry="80.5" rx="413.3" cy="684.7" cx="515.6" class="st0" transform="matrix(0.879 -0.4768 0.4768 0.879 -264.0798 328.6729)"></ellipse>
<g>
	<linearGradient y2="631.1624" x2="412.6236" y1="578.7375" x1="251.2764" gradientUnits="userSpaceOnUse" id="SVGID_1_">
		<stop style="stop-color:#31A0F9" offset="2.420201e-07"></stop>
		<stop style="stop-color:#1968F4" offset="1"></stop>
	</linearGradient>
	<path d="M357.7,800.2l-42.3-24.6c-5.1-3-8.3-9.3-8.3-18.2l42.3,24.6C349.4,790.9,352.6,797.2,357.7,800.2 M348.5,434.3
		l-42.3-24.6l0.9,347.7l42.3,24.6L348.5,434.3z" class="st1"></path>
	<linearGradient y2="270.8179" x2="744.7" y1="270.8179" x1="334.2675" gradientUnits="userSpaceOnUse" id="SVGID_2_">
		<stop style="stop-color:#79BAF9" offset="1.815150e-07"></stop>
		<stop style="stop-color:#2C7FF4" offset="1"></stop>
	</linearGradient>
	<path d="M726.2,183.6c-0.6,0.3-1.2,0.6-1.8,1L682.1,160c0.6-0.3,1.2-0.7,1.8-1c0.2-0.1,0.3-0.2,0.5-0.3
		c0.5-0.2,0.9-0.4,1.4-0.6c0.1,0,0.2-0.1,0.3-0.1s0.1,0,0.2-0.1c0.4-0.2,0.8-0.3,1.3-0.5c0.1,0,0.2-0.1,0.3-0.1
		c0.5-0.2,1-0.3,1.5-0.5h0.1c0.3-0.1,0.5-0.1,0.8-0.2c0.1,0,0.3-0.1,0.4-0.1c0.4-0.1,0.9-0.2,1.3-0.2l0,0l0,0
		c0.4-0.1,0.8-0.1,1.1-0.1c0.1,0,0.3,0,0.4,0c0.2,0,0.4,0,0.5,0s0.1,0,0.2,0c0.6,0,1.1,0,1.6,0h0.1c0.1,0,0.1,0,0.2,0
		c0.4,0,0.9,0.1,1.3,0.1c0.1,0,0.2,0,0.2,0c0.1,0,0.1,0,0.2,0c0.5,0.1,1,0.2,1.4,0.3l0,0c0,0,0,0,0.1,0c0.4,0.1,0.9,0.3,1.3,0.5
		c0.1,0,0.1,0,0.2,0.1c0.1,0,0.1,0.1,0.2,0.1c0.4,0.2,0.7,0.3,1,0.5c0.1,0,0.1,0.1,0.2,0.1c0.1,0,0.1,0.1,0.2,0.1l42.3,24.6
		c-0.1-0.1-0.2-0.1-0.3-0.2c-0.3-0.2-0.7-0.4-1-0.5c-0.1-0.1-0.2-0.1-0.4-0.2c-0.4-0.2-0.8-0.3-1.3-0.5c0,0,0,0-0.1,0
		c-0.5-0.1-0.9-0.2-1.4-0.3c-0.1,0-0.3,0-0.4-0.1c-0.4-0.1-0.8-0.1-1.3-0.1c-0.1,0-0.2,0-0.3,0c-0.5,0-1.1,0-1.6,0
		c-0.2,0-0.5,0-0.7,0c-0.1,0-0.3,0-0.4,0c-0.4,0-0.8,0.1-1.1,0.1l0,0c-0.4,0.1-0.9,0.1-1.3,0.2c-0.1,0-0.3,0.1-0.4,0.1
		c-0.3,0.1-0.6,0.1-0.9,0.2c-0.5,0.1-1,0.3-1.5,0.5c-0.1,0-0.2,0.1-0.3,0.1c-0.4,0.1-0.8,0.3-1.3,0.5c-0.2,0.1-0.3,0.1-0.5,0.2
		c-0.4,0.2-0.9,0.4-1.4,0.6C726.5,183.5,726.4,183.6,726.2,183.6z M724.4,184.6L682.1,160L334.3,360.8l42.3,24.6L724.4,184.6z" class="st2"></path>
	<linearGradient y2="371.4175" x2="357.6949" y1="420.8898" x1="321.7513" gradientUnits="userSpaceOnUse" id="SVGID_3_">
		<stop style="stop-color:#249BF9" offset="0.1249"></stop>
		<stop style="stop-color:#30A1F9" offset="0.2082"></stop>
		<stop style="stop-color:#4FB2F9" offset="0.3581"></stop>
		<stop style="stop-color:#78C7F9" offset="0.52"></stop>
		<stop style="stop-color:#79B2F9" offset="1"></stop>
	</linearGradient>
	<path d="M348.7,431.3c0.1-0.8,0.1-1.6,0.2-2.4c0-0.2,0.1-0.5,0.1-0.7c0.1-0.4,0.1-0.8,0.2-1.1c0-0.3,0.1-0.5,0.1-0.8
		c0.1-0.4,0.1-0.7,0.2-1.1c0-0.2,0.1-0.4,0.1-0.6c0.2-0.9,0.4-1.9,0.7-2.8c0-0.2,0.1-0.3,0.1-0.5c0.2-0.8,0.5-1.6,0.7-2.5
		c0-0.1,0-0.1,0.1-0.2c0.3-0.8,0.6-1.6,0.8-2.4c0.1-0.2,0.2-0.4,0.2-0.6c0.3-0.7,0.5-1.3,0.8-2c0-0.1,0.1-0.2,0.1-0.3
		c0.3-0.7,0.7-1.5,1-2.2c0.1-0.2,0.2-0.4,0.3-0.6c0.3-0.6,0.6-1.1,0.9-1.7c0.1-0.2,0.2-0.3,0.3-0.5c0.4-0.7,0.8-1.4,1.2-2.1
		c0.1-0.1,0.2-0.3,0.2-0.4c0.4-0.6,0.7-1.2,1.1-1.8c0.1-0.2,0.2-0.4,0.3-0.5c0.5-0.7,0.9-1.4,1.4-2.1c0.1-0.1,0.2-0.2,0.2-0.3
		c0.5-0.7,1-1.4,1.6-2.1c0.1-0.1,0.1-0.2,0.2-0.3c0.7-0.9,1.4-1.7,2.1-2.5c0.1-0.1,0.2-0.2,0.3-0.3c0.4-0.5,0.9-1,1.3-1.5
		c0,0,0-0.1,0.1-0.1c0.5-0.5,1-1,1.4-1.5c0.1-0.1,0.2-0.2,0.3-0.3c0.6-0.6,1.3-1.2,1.9-1.8c0.1-0.1,0.1-0.1,0.2-0.2
		c0.7-0.6,1.4-1.2,2.1-1.7c0.1-0.1,0.3-0.2,0.4-0.3c0.7-0.5,1.4-1,2.1-1.5c0.1-0.1,0.3-0.2,0.4-0.2c0.7-0.5,1.5-1,2.2-1.4
		l-42.3-24.6c-0.8,0.4-1.5,0.9-2.2,1.4c-0.1,0.1-0.3,0.2-0.4,0.2c-0.7,0.5-1.4,1-2.1,1.5c-0.1,0.1-0.3,0.2-0.4,0.3
		c-0.7,0.5-1.4,1.1-2.1,1.7c-0.1,0.1-0.1,0.1-0.2,0.2c-0.7,0.6-1.3,1.2-1.9,1.8c-0.1,0.1-0.1,0.1-0.2,0.2l-0.1,0.1
		c-0.5,0.5-1,1-1.4,1.5c0,0,0,0.1-0.1,0.1c-0.5,0.5-0.9,1-1.3,1.5l-0.1,0.1c-0.1,0.1-0.1,0.1-0.2,0.2c-0.7,0.8-1.4,1.7-2.1,2.5
		c0,0,0,0-0.1,0.1s-0.1,0.1-0.2,0.2c-0.5,0.7-1.1,1.4-1.6,2.1c-0.1,0.1-0.1,0.1-0.2,0.2c0,0,0,0.1-0.1,0.1c-0.5,0.7-1,1.4-1.4,2.1
		c0,0.1-0.1,0.1-0.1,0.2c-0.1,0.1-0.1,0.2-0.2,0.3c-0.4,0.6-0.7,1.2-1.1,1.8c-0.1,0.1-0.1,0.2-0.2,0.3c0,0,0,0.1-0.1,0.1
		c-0.4,0.7-0.8,1.4-1.2,2.1c0,0.1-0.1,0.1-0.1,0.2c-0.1,0.1-0.1,0.2-0.2,0.4c-0.3,0.6-0.6,1.1-0.9,1.7c-0.1,0.1-0.1,0.2-0.2,0.4
		c0,0.1-0.1,0.1-0.1,0.2c-0.3,0.7-0.7,1.4-1,2.2c0,0,0,0,0,0.1s-0.1,0.2-0.1,0.2c-0.3,0.7-0.6,1.3-0.8,2c0,0.1-0.1,0.2-0.1,0.3
		c0,0.1-0.1,0.2-0.1,0.3c-0.3,0.8-0.6,1.6-0.8,2.4l0,0v0.1c-0.3,0.8-0.5,1.6-0.7,2.4c0,0.1-0.1,0.2-0.1,0.3c0,0.1,0,0.1,0,0.2
		c-0.3,0.9-0.5,1.9-0.7,2.8c0,0.1,0,0.2-0.1,0.3c0,0.1,0,0.2-0.1,0.4c-0.1,0.4-0.1,0.7-0.2,1.1c0,0.3-0.1,0.5-0.1,0.8
		c-0.1,0.4-0.1,0.8-0.2,1.1c0,0.2-0.1,0.4-0.1,0.5v0.1c-0.1,0.8-0.2,1.6-0.2,2.4c0,0.2,0,0.3,0,0.5c0,0.8,0.1,1.8,0.1,2.6l42.3,24.6
		C348.5,433.5,348.7,431.5,348.7,431.3z" class="st3"></path>
	<g>
		<linearGradient y2="491.4" x2="753.8007" y1="491.4" x1="348.4994" gradientUnits="userSpaceOnUse" id="SVGID_4_">
			<stop style="stop-color:#6AB1F9" offset="2.014342e-03"></stop>
			<stop style="stop-color:#2B7CF4" offset="1"></stop>
		</linearGradient>
		<path d="M724.4,184.6c15.7-9,28.4-1.8,28.5,16.2l0.9,347.7c0.1,18-12.6,39.9-28.3,49L377.9,798.2
			c-15.7,9-28.4,1.8-28.5-16.2l-0.9-347.7c-0.1-18,12.6-39.9,28.3-49L724.4,184.6z" class="st4"></path>
		<linearGradient y2="564.1512" x2="750.9822" y1="418.6488" x1="351.2177" gradientUnits="userSpaceOnUse" id="SVGID_5_">
			<stop style="stop-color:#89BCEF" offset="6.050502e-08"></stop>
			<stop style="stop-color:#7EB6EF" offset="7.246957e-02"></stop>
			<stop style="stop-color:#5AA2F1" offset="0.3433"></stop>
			<stop style="stop-color:#3F93F2" offset="0.5965"></stop>
			<stop style="stop-color:#308AF3" offset="0.823"></stop>
			<stop style="stop-color:#2A87F3" offset="1"></stop>
		</linearGradient>
		<path d="M737.1,180.7v1c9.1,0,14.7,7.3,14.7,19.1l0.9,347.7c0.1,17.7-12.4,39.2-27.8,48.1L377.4,797.4
			c-4.3,2.5-8.5,3.8-12.2,3.8c-9.1,0-14.7-7.3-14.7-19.1l-0.9-347.7c-0.1-17.7,12.4-39.3,27.8-48.1L725,185.6
			c4.3-2.5,8.4-3.8,12.2-3.8L737.1,180.7 M737.1,180.7c-3.8,0-8.2,1.3-12.7,3.9L376.8,385.3c-15.7,9-28.3,31-28.3,49l0.9,347.7
			c0,12.7,6.4,20.1,15.7,20.1c3.8,0,8.2-1.3,12.7-3.9l347.6-200.7c15.7-9,28.3-31,28.3-49l-0.9-347.7
			C752.8,188.1,746.4,180.7,737.1,180.7L737.1,180.7z" class="st5"></path>
	</g>
</g>
<g>
	<linearGradient y2="322.2" x2="407.7281" y1="322.2" x1="386.3705" gradientUnits="userSpaceOnUse" id="SVGID_6_">
		<stop style="stop-color:#31A0F9" offset="2.420201e-07"></stop>
		<stop style="stop-color:#1968F4" offset="1"></stop>
	</linearGradient>
	<polygon points="407.7,356 386.6,343.7 386.4,288.4 407.5,300.6" class="st6"></polygon>
	<linearGradient y2="279.75" x2="458.6" y1="279.75" x1="386.4" gradientUnits="userSpaceOnUse" id="SVGID_7_">
		<stop style="stop-color:#79BAF9" offset="1.815150e-07"></stop>
		<stop style="stop-color:#2C88F4" offset="0.8817"></stop>
		<stop style="stop-color:#4B82F4" offset="1"></stop>
	</linearGradient>
	<polygon points="407.5,300.6 386.4,288.4 437.5,258.9 458.6,271.1" class="st7"></polygon>
	<g>
		<linearGradient y2="313.55" x2="458.8" y1="313.55" x1="407.5" gradientUnits="userSpaceOnUse" id="SVGID_8_">
			<stop style="stop-color:#6AB1F9" offset="2.014342e-03"></stop>
			<stop style="stop-color:#2B7CF4" offset="1"></stop>
		</linearGradient>
		<polygon points="458.6,271.1 458.8,326.5 407.7,356 407.5,300.6" class="st8"></polygon>
		<linearGradient y2="323.3086" x2="459.9616" y1="303.7914" x1="406.3384" gradientUnits="userSpaceOnUse" id="SVGID_9_">
			<stop style="stop-color:#89BCEF" offset="6.050502e-08"></stop>
			<stop style="stop-color:#7EB7EF" offset="7.246957e-02"></stop>
			<stop style="stop-color:#5AA8F1" offset="0.3433"></stop>
			<stop style="stop-color:#3F9CF2" offset="0.5965"></stop>
			<stop style="stop-color:#3095F3" offset="0.823"></stop>
			<stop style="stop-color:#2A93F3" offset="1"></stop>
		</linearGradient>
		<path d="M457.6,272.9l0.2,53.1l-49.1,28.3l-0.2-53.1L457.6,272.9 M458.6,271.1l-51.1,29.5l0.2,55.4l51.1-29.5
			L458.6,271.1L458.6,271.1z" class="st9"></path>
	</g>
</g>
<g>
	<polygon points="457.8,518.8 436.7,506.5 436.5,471.2 457.6,483.4" class="st10"></polygon>
	<polygon points="457.6,483.4 436.5,471.2 541.6,410.3 562.8,422.6" class="st11"></polygon>
	<polygon points="562.8,422.6 563,458 457.8,518.8 457.6,483.4" class="st12"></polygon>
</g>
<g>
	<polygon points="457.8,641.6 436.7,629.3 436.5,594 457.6,606.3" class="st10"></polygon>
	<polygon points="457.6,606.3 436.5,594 687.2,449 708.3,461.3" class="st11"></polygon>
	<polygon points="708.3,461.3 708.6,496.7 457.8,641.6 457.6,606.3" class="st12"></polygon>
</g>
<g>
	<ellipse ry="11.2" rx="31.6" cy="776.5" cx="281.2" class="st0"></ellipse>
	<path d="M283.7,776.7c-24.9,4.1-86.4-166.2-60.8-182.4c11.1-7,37,16.1,46.9,26.6C321.6,676,301.6,773.7,283.7,776.7z" class="st13"></path>
	<path d="M286.2,776.7c9.8-13.6-67-95.3-82.3-86.1c-7.6,4.6-0.7,31.8,10.1,49.4C235.2,774.2,280.1,785.2,286.2,776.7z" class="st14"></path>
	<path d="M232.4,612c8.2,12.2,15.6,24.9,22.4,38c6.7,13.1,12.8,26.5,18,40.3c2.6,6.9,4.9,13.9,7,21
		c2,7.1,3.7,14.3,5,21.5c1.2,7.3,2.1,14.6,2.4,22s0,14.7-0.9,22h-0.1c0.6-7.3,0.6-14.7,0.1-22s-1.5-14.6-2.8-21.8
		c-2.6-14.4-6.7-28.5-11.7-42.3s-10.9-27.2-17.6-40.3c-6.6-13.1-13.8-25.9-21.9-38.2L232.4,612z" class="st12"></path>
	<path d="M216.8,712.7c2.2,3.2,4.5,6.4,6.8,9.6c2.3,3.2,4.7,6.3,7.1,9.4c4.9,6.2,9.9,12.2,15.3,17.9
		c2.7,2.9,5.4,5.7,8.3,8.3c2.9,2.7,5.8,5.2,8.9,7.6c3.1,2.4,6.3,4.6,9.7,6.5c3.4,2,7,3.6,10.8,4.6c-7.7-1.7-14.7-5.8-21.1-10.4
		c-6.3-4.7-12.1-10.2-17.5-15.9c-5.3-5.8-10.4-11.8-15.1-18.1C225.3,726,220.8,719.5,216.8,712.7z" class="st12"></path>
</g>
<g>
	<linearGradient y2="202.3" x2="619.3281" y1="202.3" x1="597.9705" gradientUnits="userSpaceOnUse" id="SVGID_10_">
		<stop style="stop-color:#31A0F9" offset="2.420201e-07"></stop>
		<stop style="stop-color:#1968F4" offset="1"></stop>
	</linearGradient>
	<polygon points="619.3,236.1 598.2,223.8 598,168.5 619.1,180.7" class="st15"></polygon>
	<linearGradient y2="159.85" x2="670.2" y1="159.85" x1="598" gradientUnits="userSpaceOnUse" id="SVGID_11_">
		<stop style="stop-color:#79BAF9" offset="1.815150e-07"></stop>
		<stop style="stop-color:#2C88F4" offset="0.8817"></stop>
		<stop style="stop-color:#4B82F4" offset="1"></stop>
	</linearGradient>
	<polygon points="619.1,180.7 598,168.5 649.1,139 670.2,151.2" class="st16"></polygon>
	<g>
		<linearGradient y2="193.65" x2="670.4" y1="193.65" x1="619.1" gradientUnits="userSpaceOnUse" id="SVGID_12_">
			<stop style="stop-color:#6AB1F9" offset="2.014342e-03"></stop>
			<stop style="stop-color:#2B7CF4" offset="1"></stop>
		</linearGradient>
		<polygon points="670.2,151.2 670.4,206.6 619.3,236.1 619.1,180.7" class="st17"></polygon>
		<linearGradient y2="203.4086" x2="671.5616" y1="183.8914" x1="617.9384" gradientUnits="userSpaceOnUse" id="SVGID_13_">
			<stop style="stop-color:#89BCEF" offset="6.050502e-08"></stop>
			<stop style="stop-color:#7EB7EF" offset="7.246957e-02"></stop>
			<stop style="stop-color:#5AA8F1" offset="0.3433"></stop>
			<stop style="stop-color:#3F9CF2" offset="0.5965"></stop>
			<stop style="stop-color:#3095F3" offset="0.823"></stop>
			<stop style="stop-color:#2A93F3" offset="1"></stop>
		</linearGradient>
		<path d="M669.2,153l0.2,53.1l-49.1,28.3l-0.2-53.1L669.2,153 M670.2,151.2l-51.1,29.5l0.2,55.4l51.1-29.5
			L670.2,151.2L670.2,151.2z" class="st18"></path>
	</g>
</g>
</svg>
